<svg width="42" height="52" viewBox="0 0 42 52" fill="none" xmlns="http://www.w3.org/2000/svg">
<path d="M40 21.6364C40 36.9091 21 50 21 50C21 50 2 36.9091 2 21.6364C2 16.4285 4.00178 11.4339 7.56497 7.75136C11.1282 4.06883 15.9609 2 21 2C26.0391 2 30.8718 4.06883 34.435 7.75136C37.9982 11.4339 40 16.4285 40 21.6364Z" stroke="#00B0FB" stroke-width="3" stroke-linecap="round" stroke-linejoin="round"/>
<path d="M21 28C24.866 28 28 25.0899 28 21.5C28 17.9101 24.866 15 21 15C17.134 15 14 17.9101 14 21.5C14 25.0899 17.134 28 21 28Z" stroke="#00B0FB" stroke-width="3" stroke-linecap="round" stroke-linejoin="round"/>
</svg>
